<svg xmlns="http://www.w3.org/2000/svg" viewBox="0 0 900 520" role="img" aria-labelledby="title desc">
  <title id="title">Kuma mascot</title>
  <desc id="desc">An original Japanese woodblock-inspired bear holding a PDF page.</desc>
  <defs>
    <pattern id="paper" width="40" height="40" patternUnits="userSpaceOnUse">
      <rect width="40" height="40" fill="#fbf3e6"/>
      <path d="M0 9h40M0 24h40M13 0v40M31 0v40" stroke="#eadfcb" stroke-width=".65" opacity=".34"/>
      <path d="M5 34c8-5 18 3 30-2M4 14c11 4 20-4 31 1" stroke="#efe5d5" stroke-width=".8" fill="none" opacity=".48"/>
    </pattern>
    <pattern id="fur" width="18" height="18" patternUnits="userSpaceOnUse" patternTransform="rotate(-13)">
      <path d="M0 5h18M0 13h18" stroke="#2a211c" stroke-width="1.2" opacity=".12"/>
    </pattern>
    <pattern id="sun-lines" width="18" height="18" patternUnits="userSpaceOnUse">
      <path d="M0 5h18M0 14h18" stroke="#aa3832" stroke-width="3" opacity=".22"/>
    </pattern>
    <clipPath id="sun">
      <circle cx="590" cy="150" r="86"/>
    </clipPath>
  </defs>

  <rect x="28" y="24" width="844" height="472" rx="18" fill="url(#paper)" stroke="#2a211c" stroke-width="4"/>
  <rect x="52" y="48" width="796" height="424" fill="none" stroke="#2a211c" stroke-width="1.5" opacity=".18"/>

  <g clip-path="url(#sun)">
    <circle cx="590" cy="150" r="86" fill="#d84d43"/>
    <rect x="500" y="58" width="180" height="184" fill="url(#sun-lines)"/>
  </g>
  <circle cx="590" cy="150" r="86" fill="none" stroke="#2a211c" stroke-width="4"/>

  <g fill="none" stroke="#2a211c" stroke-linecap="round" stroke-linejoin="round">
    <path d="M82 331c68-36 129-42 184-18 59 26 122 26 190 0 87-33 178-18 273 47" stroke-width="5"/>
    <path d="M93 373c59-24 113-30 161-17 60 17 121 16 183-2 98-29 194-9 287 60" stroke-width="3.5" opacity=".55"/>
    <path d="M116 411c75-23 146-23 214 2 67 24 140 20 218-11 62-24 122-20 180 13" stroke-width="3" opacity=".32"/>
    <path d="M123 295c58-23 115-22 171 4M612 286c56-11 105 1 148 36" stroke-width="3" opacity=".28"/>
  </g>

  <g transform="translate(260 58)">
    <path d="M197 79c-35-45-93-48-130-9-21 23-27 55-16 86-48 32-76 81-72 137 7 91 86 149 202 151 122 2 214-58 223-151 6-59-23-112-76-146 8-34-5-67-34-87-38-26-82-16-112 19-13-6-27-9-43-9-14 0-28 3-42 9Z" fill="#f8eddb" stroke="#2a211c" stroke-width="7" stroke-linejoin="round"/>
    <path d="M197 79c-35-45-93-48-130-9-21 23-27 55-16 86-48 32-76 81-72 137 7 91 86 149 202 151 122 2 214-58 223-151 6-59-23-112-76-146 8-34-5-67-34-87-38-26-82-16-112 19-13-6-27-9-43-9-14 0-28 3-42 9Z" fill="url(#fur)" opacity=".58"/>

    <path d="M80 96c17-28 52-34 76-13M244 86c29-23 66-10 77 22" stroke="#2a211c" stroke-width="4" fill="none" opacity=".42"/>
    <path d="M63 173c55-43 143-62 236-25" stroke="#2a211c" stroke-width="5" fill="none"/>
    <path d="M74 203c70-35 146-42 225-16" stroke="#2a211c" stroke-width="3.5" fill="none" opacity=".52"/>
    <path d="M93 237c58-18 119-20 184-4" stroke="#2a211c" stroke-width="3" fill="none" opacity=".3"/>

    <circle cx="104" cy="271" r="11" fill="#2a211c"/>
    <circle cx="262" cy="271" r="11" fill="#2a211c"/>
    <path d="M159 291c0-24 48-24 48 0 0 18-24 32-24 32s-24-14-24-32Z" fill="#2a211c"/>
    <path d="M143 344c24 19 57 19 81 0" stroke="#2a211c" stroke-width="6" fill="none"/>
    <path d="M150 260c22-8 44-8 66 0" stroke="#2a211c" stroke-width="4" fill="none" opacity=".24"/>

    <path d="M31 244c-15 31-17 64-6 98M345 238c22 36 26 75 11 116M66 374c50 29 111 40 183 31" stroke="#2a211c" stroke-width="3" fill="none" opacity=".2"/>
    <path d="M92 305c-12 24-15 50-9 78M299 301c9 28 9 55 0 82" stroke="#2a211c" stroke-width="2.5" fill="none" opacity=".22"/>

    <path d="M77 372c36-33 76-49 120-49 50 0 96 21 138 64-39 30-84 44-135 42-53-2-94-21-123-57Z" fill="#241d19"/>
    <path d="M77 372c36-33 76-49 120-49 50 0 96 21 138 64-39 30-84 44-135 42-53-2-94-21-123-57Z" fill="url(#fur)" opacity=".45"/>
    <path d="M77 372c36-33 76-49 120-49 50 0 96 21 138 64" stroke="#2a211c" stroke-width="5" fill="none"/>
  </g>

  <g transform="translate(512 265) rotate(6)">
    <rect x="0" y="0" width="116" height="154" rx="10" fill="#f8f0e4" stroke="#2a211c" stroke-width="5"/>
    <path d="M84 0v37h32" fill="none" stroke="#2a211c" stroke-width="5"/>
    <circle cx="31" cy="58" r="7" fill="#d84d43"/>
    <path d="M50 53h35M28 83h60M28 111h60" stroke="#2a211c" stroke-width="5" stroke-linecap="round"/>
    <path d="M25 134h38" stroke="#2a211c" stroke-width="4" stroke-linecap="round" opacity=".45"/>
  </g>

  <g transform="translate(692 350)">
    <rect width="82" height="82" fill="#d84d43" stroke="#2a211c" stroke-width="4"/>
    <path d="M21 24h40M21 42h40M21 60h40M41 18v49" stroke="#f8eddb" stroke-width="6" stroke-linecap="round"/>
  </g>

  <g fill="none" stroke="#2a211c" stroke-linecap="round" opacity=".2">
    <path d="M126 123c43-27 86-32 128-14" stroke-width="4"/>
    <path d="M118 154c64-24 122-23 174 5" stroke-width="3"/>
    <path d="M664 247c43-17 83-9 119 24" stroke-width="3"/>
  </g>
</svg>
